<svg xmlns="http://www.w3.org/2000/svg" width="574.548" height="111.064" viewBox="0 0 574.548 111.064"><path d="M-146.455,418.513c16.365-3.861,22.706-9.347,23.843-22.577,1.106-12.872-1.393-24.249-16.173-31.385,9.882-5.1,11.276-14.22,11.547-23.916,1.019-.564,2.106-.276,3.494-.192,2.9,8.3,5.829,16.685,8.979,25.7l9.819-25.614h68.634v77.4H-75.217V366.592l-.763-.116c-4.545,17.3-9.089,34.594-13.672,52.037Z" transform="translate(210.192 -311.34)" fill="#5b5b5d"/><path d="M363.113,373.516v4.41H-16.557c-.624-1.307-.037-2.786-.356-4.41Z" transform="translate(210.192 -311.34)" fill="#5b5b5d"/><path d="M328.847,362.812h-9.769c-4.495-11.078-9.522-22.044-13.2-33.611.295,11.13,1.132,22.179.627,33.485h-9.127V312.744H307c4.517,11.629,9.824,23.158,13.464,35.386-.568-11.777-1.342-23.513-.916-35.421h9.3Z" transform="translate(210.192 -311.34)" fill="#5b5b5d"/><path d="M34.811,341.528v21.183H25.367V312.594c8.159.3,16.329-.956,24.389.906,4.188.968,6.57,3.878,7.419,8.1,1.329,6.607-.451,11.5-5.865,15.458,4.593,1.574,5.633,5.085,5.656,9.4.029,5.339-.262,10.756,2,16.164H48.514c-1.147-3.185-.857-6.775-1.087-10.284-.124-1.887.026-3.794-.139-5.676-.287-3.265-1.663-4.676-4.845-5.042-1.582-.182-3.187-.189-4.783-.222C36.785,341.381,35.908,341.474,34.811,341.528Zm.027-7.7c2.587,0,4.876.129,7.145-.029,3.675-.257,5.417-2.654,5.427-7.163.01-4.537-1.2-6.153-5.168-6.443-2.435-.179-4.894-.033-7.4-.033Z" transform="translate(210.192 -311.34)" fill="#5b5b5d"/><path d="M-36.217,334.075h-67.09c2.415-6.3,4.743-12.385,7.06-18.435a3.48,3.48,0,0,1,.927-.31c13.578-.02,27.158-.135,40.735.009,8.292.088,16.584,7.066,18.393,15.091A5.127,5.127,0,0,1-36.217,334.075Z" transform="translate(210.192 -311.34)" fill="#1e7abe"/><path d="M11.131,335.948c4.219,1.416,5.821,4.494,6.317,8.43A22.3,22.3,0,0,1,16.3,355.819c-1.642,4.026-4.559,6.679-8.971,6.843-6.349.237-12.714.061-19.212.061V312.617c6.879.06,13.654-.574,20.373.462a8.2,8.2,0,0,1,7.16,6.767C16.761,325.764,17.623,331.87,11.131,335.948ZM-2.389,355.5c3.393-.507,7.264,1.148,9.219-2.464a10.369,10.369,0,0,0-.1-10.354c-2.067-3.4-5.807-2.039-9.115-2.151Zm-.019-22.645c3.118-.515,6.664,1.145,8.322-2.326,1.333-2.788,1.663-6.225-.3-8.814-1.986-2.615-5.216-1.4-8.019-1.587Z" transform="translate(210.192 -311.34)" fill="#5b5b5d"/><path d="M288.632,339.306a83.9,83.9,0,0,1-.394,11.2c-.79,8.572-5.258,12.963-13.818,13.584a30.614,30.614,0,0,1-4.492-.005c-8.59-.645-13-4.767-13.835-13.549a110.354,110.354,0,0,1,.365-26.523c1.182-8.053,4.8-11.417,12.85-12.457a25.82,25.82,0,0,1,8.334.359c5.937,1.165,8.983,5.188,10.03,10.877A83.8,83.8,0,0,1,288.632,339.306Zm-9.86-1.055h.012q0-4.173,0-8.346a20.292,20.292,0,0,0-.749-5.888c-.964-3.215-3-4.869-5.967-4.853-3.018.017-5.063,1.641-5.864,4.917a22.377,22.377,0,0,0-.658,5c-.076,6.059-.016,12.121-.039,18.181a14.076,14.076,0,0,0,.958,5.238,5.756,5.756,0,0,0,6.049,3.922,5.691,5.691,0,0,0,5.517-4.243,15.1,15.1,0,0,0,.739-4.687Q278.773,342.872,278.772,338.251Z" transform="translate(210.192 -311.34)" fill="#5b5b5d"/><path d="M65.927,340.162a120.247,120.247,0,0,1,.529-15.242c1-8.537,4.777-12.392,13.292-13.4a25.8,25.8,0,0,1,8.039.383c5.975,1.169,9.43,5.227,10.35,12.307a110.914,110.914,0,0,1,.4,24.748c-1.109,11.722-6.853,16.191-18.676,15.119-8.313-.754-12.221-4.566-13.486-12.911A81.134,81.134,0,0,1,65.927,340.162Zm22.79-2.12c.022-4.373.673-8.789-.274-13.117-.858-3.922-3.009-5.834-6.168-5.8-3.377.036-5.694,2.081-6.133,6.117a117.4,117.4,0,0,0-.052,25.045c.426,4.037,3.051,6.281,6.441,6.169,3.459-.115,5.845-2.379,6.127-6.471C88.931,346.022,88.717,342.025,88.717,338.042Z" transform="translate(210.192 -311.34)" fill="#5b5b5d"/><path d="M139.724,340.363c-.069,2.778.156,7.366-.65,11.912-1.256,7.083-4.951,10.7-12.081,11.569a32.031,32.031,0,0,1-5.968.228c-8.554-.562-13.041-4.968-13.783-13.551-.8-9.246-1.065-18.514.564-27.692,1.288-7.25,4.962-10.344,12.3-11.253a28.405,28.405,0,0,1,8.047.216c6.179.994,9.892,5.252,10.86,12.167A109.8,109.8,0,0,1,139.724,340.363Zm-22.951-2.621h.061c0,3.971-.2,7.955.055,11.909.275,4.207,2.745,6.689,6.161,6.807,3.544.122,6.041-2.018,6.495-6.357a113.646,113.646,0,0,0-.089-24.66,9.64,9.64,0,0,0-.727-2.566,5.586,5.586,0,0,0-5.577-3.72,5.488,5.488,0,0,0-5.593,4.085,15.62,15.62,0,0,0-.751,4.079C116.7,330.79,116.773,334.267,116.773,337.742Z" transform="translate(210.192 -311.34)" fill="#5b5b5d"/><path d="M148.338,312.565c2.493,0,4.774-.014,7.055.008.68.007,1.359.113,2.231.19v20.025l.556.2L169.011,312.7h10.823c-4.2,7.327-8.229,14.365-12.339,21.537l12.892,28.482H169.6q-4.227-9.4-8.561-19.044c-5.752,5.537-2.163,12.709-3.621,19.083h-9.079Z" transform="translate(210.192 -311.34)" fill="#5b5b5d"/><path d="M213.938,327.8a54.82,54.82,0,0,1-9.279.029c-.172-1.5-.253-2.872-.5-4.217-.455-2.461-1.611-4.316-4.448-4.392-2.038-.054-4.188-.02-5.122,2.2-1.05,2.493-.821,5.061,1.439,6.776,4.205,3.189,8.6,6.128,12.9,9.193,4.859,3.463,6.632,8.3,6.105,14.072-.663,7.267-5.351,11.684-13.244,12.57-8.953,1-15.494-2.756-17.124-9.888a28.567,28.567,0,0,1-.48-8.789,55.541,55.541,0,0,1,9.2-.165c.192,2.067.311,3.934.551,5.784.346,2.666,1.469,4.814,4.394,5.322,2.271.394,4.556.1,5.882-1.972a7.037,7.037,0,0,0-.082-7.644,9.334,9.334,0,0,0-2.994-2.883c-3.44-2.384-6.944-4.685-10.3-7.18-4.938-3.67-7.388-8.445-6.368-14.77.817-5.065,3.54-8.311,8.494-9.672a22.584,22.584,0,0,1,11.542-.158,11.351,11.351,0,0,1,8.9,10.068C213.63,323.851,213.737,325.638,213.938,327.8Z" transform="translate(210.192 -311.34)" fill="#5b5b5d"/><path d="M362.824,332.608v7.564H347.377V355.3h16.7a29.529,29.529,0,0,1,.091,7.442h-26.26V312.778h26.288V320H347.361v12.611Z" transform="translate(210.192 -311.34)" fill="#5b5b5d"/><path d="M-210.191,376.944c11.134.038,22.072-.5,33,.2a14.209,14.209,0,0,1,9.961,4.835c2.465,2.77,2.338,5.66-.458,8.085a13.253,13.253,0,0,1-8.665,3.56c-10.96.071-21.921.032-32.882.023a4.368,4.368,0,0,1-.956-.254Z" transform="translate(210.192 -311.34)" fill="#5b5b5d"/><path d="M-210.192,356.4V339.723c3,0,5.861-.01,8.722,0,7.676.032,15.354-.009,23.028.145a14.739,14.739,0,0,1,11.153,4.91c2.493,2.79,2.41,5.579-.356,8.075a12,12,0,0,1-7.768,3.486C-186.948,356.485-198.487,356.4-210.192,356.4Z" transform="translate(210.192 -311.34)" fill="#5b5b5d"/><path d="M230.163,362.771V320.128H219.42v-7.4H250.4a37.809,37.809,0,0,1,.18,7.354H239.743v42.69Z" transform="translate(210.192 -311.34)" fill="#5b5b5d"/><path d="M250.081,421.447h-3.854V395.561l-.985-.176q-3.632,13.008-7.273,26.052h-4.7q-3.717-13.356-7.459-26.807l-.58.048v26.333a5.862,5.862,0,0,1-4.032.352V388.73h6.766l7.376,27.006.622-.042,7.309-27.012h6.808Z" transform="translate(210.192 -311.34)" fill="#1e7abe"/><path d="M3.192,421.436H-1.522Q-5.342,407.7-9.147,394.01l-.474.07V420.9c-1.273.987-2.459.6-3.861.495V388.831c2.013-.676,4.179-.215,6.623-.275L.853,416.895l7.614-28.178a29.388,29.388,0,0,1,6.806-.065V421.27a8.976,8.976,0,0,1-3.758.164V393.95l-.652-.109C8.325,402.971,5.787,412.1,3.192,421.436Z" transform="translate(210.192 -311.34)" fill="#1e7abe"/><path d="M306.877,421.069c-1.578.728-2.73.394-4.049.391v-32.7c1.985-.478,3.961-.174,6.293-.228l9.873,26.617.728-.059V388.879a7.948,7.948,0,0,1,4.139-.177v32.674h-6.4c-3.341-9.044-6.725-18.209-10.109-27.373l-.475.091Z" transform="translate(210.192 -311.34)" fill="#1e7abe"/><path d="M74.661,421.229a7.78,7.78,0,0,1-3.969.1V388.656h6.281l9.976,26.977.635-.06V388.979a5.215,5.215,0,0,1,3.968-.169v32.579H85.24c-3.29-8.928-6.608-17.933-9.927-26.938l-.652.055Z" transform="translate(210.192 -311.34)" fill="#1e7abe"/><path d="M167.64,397.938h-3.823c-.5-2.283-.8-4.619-3.041-5.933a6.345,6.345,0,0,0-9.522,3.935,37.808,37.808,0,0,0-.191,18.03,5.754,5.754,0,0,0,5.946,4.882c3.2.093,5.1-1.269,6.152-4.541a11.586,11.586,0,0,0,.616-6.34H157.1c-.885-1.125-.515-2.123-.5-3.2,1.8-.726,3.7-.259,5.551-.34,1.881-.082,3.769-.018,5.839-.018v17.134c-.881.71-1.845.289-2.947.266-.069-1.067-.129-2-.221-3.435a9.267,9.267,0,0,1-9.129,3.936c-3.926-.469-6.894-2.447-8.075-6.17a34.017,34.017,0,0,1,.3-22.539c1.792-4.839,6.795-6.912,12.426-5.671C165.107,388.983,167.724,392.489,167.64,397.938Z" transform="translate(210.192 -311.34)" fill="#1e7abe"/><path d="M54.992,421.224a8.974,8.974,0,0,1-4.393.121l-2.664-9.085h-10.6l-2.542,9.152h-4.4c3.256-11.044,6.445-21.863,9.616-32.622a16.627,16.627,0,0,1,5.336-.17C48.518,399.348,51.717,410.157,54.992,421.224Zm-12.059-28.5-.638.071-3.947,15.642H46.9C45.543,403.059,44.238,397.892,42.933,392.726Z" transform="translate(210.192 -311.34)" fill="#1e7abe"/><path d="M111.355,421.415h-4.389c3.258-11.065,6.443-21.877,9.6-32.612a15.356,15.356,0,0,1,5.358-.153c3.175,10.756,6.373,21.587,9.613,32.564a8.808,8.808,0,0,1-4.375.149c-.9-3.049-1.791-6.078-2.7-9.15H113.931C113.08,415.252,112.23,418.288,111.355,421.415Zm8.149-28.578-.642-.051c-1.305,5.157-2.61,10.314-3.964,15.661h8.594C122.129,403.112,120.816,397.975,119.5,392.837Z" transform="translate(210.192 -311.34)" fill="#1e7abe"/><path d="M284.451,402.557v3.47H272.318v11.967h12.813a3.418,3.418,0,0,1,.188,3.4H268.2V388.7h16.847c.751.847.379,1.932.258,3.248H272.328v10.609Z" transform="translate(210.192 -311.34)" fill="#1e7abe"/><path d="M203.558,417.925a4.806,4.806,0,0,1,.132,3.424H186.662V388.688h16.78a4.355,4.355,0,0,1,.089,3.329H190.749v10.524h11.73c.682,1.321.418,2.271.295,3.527h-12.1v11.857Z" transform="translate(210.192 -311.34)" fill="#1e7abe"/><path d="M348.4,392.007h-8.7a4.545,4.545,0,0,1-.137-3.3h21.374c.618.948.382,1.913.2,3.223H352.4v29.094a5.056,5.056,0,0,1-4,.243Z" transform="translate(210.192 -311.34)" fill="#1e7abe"/><path d="M-127.659,333.844c-3.2-13.149-13.866-15.593-24.361-18.636h20.348l6.414,18.239C-126,334.738-126.9,334.153-127.659,333.844Z" transform="translate(210.192 -311.34)" fill="#1e7abe"/></svg>