<svg xmlns="http://www.w3.org/2000/svg" width="954.001" height="935.232" viewBox="0 0 954.001 935.232">
  <path id="Path_3860" data-name="Path 3860" d="M4211.977,859.148c-33.7-35.34-91.43-94.437-103.933-103.251l-.012-.02s-7.3-5.908-14.19-5.908c-5.663,0-12.045,4.047-14.166,5.506l-.3.207c-.292.208-.487.351-.487.351h0c-12.868,9.242-70.213,67.943-103.751,103.114-161.181,168.944-490.532,554-301.386,743.142a282.248,282.248,0,0,0,200.073,82.912h439.46a282.257,282.257,0,0,0,200.073-82.912c83.449-83.448,66.9-203.952,8.323-327.388C4446.689,1116.863,4302.554,954.094,4211.977,859.148Z" transform="translate(-3616.824 -749.969)" fill="#f4f4f3"/>
</svg>
