<svg xmlns="http://www.w3.org/2000/svg" width="627.194" height="623.158" viewBox="0 0 627.194 623.158">
  <path id="Path_3891" data-name="Path 3891" d="M3909.68,803.692c-16.583-17.39-44.99-46.469-51.143-50.806l-.006-.01s-3.59-2.907-6.982-2.907c-2.787,0-5.926,1.992-6.97,2.71l-.146.1-.24.173h0c-6.332,4.547-34.549,33.433-51.052,50.739-79.312,83.132-241.375,272.607-148.3,365.676a138.886,138.886,0,0,0,98.45,40.8h216.244a138.891,138.891,0,0,0,98.45-40.8c41.063-41.062,32.918-100.358,4.1-161.1C4025.174,930.506,3954.25,850.412,3909.68,803.692Z" transform="translate(-2673.209 -2310.231) rotate(27)" fill="#f4f4f3"/>
</svg>
