<svg xmlns="http://www.w3.org/2000/svg" width="2253.274" height="2174.816" viewBox="0 0 2253.274 2174.816">
  <path id="Union_2" data-name="Union 2" d="M3361.237,20243.428c-174.814-15.291-344.283-97.354-466.109-242.543l-293.645-349.949-98.036-116.838-48.517-57.824-245.138-292.135c-121.821-145.189-173.222-326.342-157.917-501.146,56.549-646.5,1285.815-634.881,1851.16-598.785,117.671,7.482,316.2,22.514,353.439,32.016,0,0,.57.143,1.414.357l.85.229c6.018,1.668,23.49,7.217,32.321,17.742,10.753,12.813,11.15,35.586,11.15,35.586l-.015.057c3.118,36.98-16.685,236.434-29.813,354.182-35.205,316.406-112.94,838.119-289.7,1223.959-130.875,285.672-315.707,497.055-577.558,497.033Q3383.549,20245.364,3361.237,20243.428Z" transform="translate(-2049.248 -18070.551)" fill="#f4f4f3"/>
</svg>
