<svg id="Layer_2" data-name="Layer 2" xmlns="http://www.w3.org/2000/svg" width="159.623" height="32.833" viewBox="0 0 159.623 32.833">
  <g id="t" transform="translate(148.822 5.245)">
    <path id="Контур_3817" data-name="Контур 3817" d="M385.425,13.4v4.892h4.892V23.1h-4.892V28c0,2,.9,2.27,2.191,2.348h.822l2.231-.157.431,4.3a11.985,11.985,0,0,1-4.735.744c-3.17,0-5.126-1.683-5.792-4.187a8.885,8.885,0,0,1-.274-2.309V13.4Z" transform="translate(-380.298 -13.4)" fill="#0c3258"/>
  </g>
  <g id="n" transform="translate(130.195 9.586)">
    <path id="Контур_3818" data-name="Контур 3818" d="M347.14,26.179a6.614,6.614,0,0,0-4.579-1.683,9.188,9.188,0,0,0-5.087,1.683h0l-.391-1.135H332.7V41.363h5.126V29.506c1.565-.626,3.874-1.174,5.244.078a2.851,2.851,0,0,1,.7,2.191v9.588H348.9V30.523a5.585,5.585,0,0,0-1.761-4.344" transform="translate(-332.7 -24.494)" fill="#0c3258"/>
  </g>
  <g id="i-stem" transform="translate(122.251 12.131)">
    <path id="Контур_3819" data-name="Контур 3819" d="M312.4,31V45.323h5.087V31a9.353,9.353,0,0,1-5.087,0" transform="translate(-312.4 -31)" fill="#0c3258"/>
  </g>
  <g id="i-dot" transform="translate(120.96)">
    <path id="Контур_3820" data-name="Контур 3820" d="M312.935,0a3.8,3.8,0,1,0,3.757,3.757A3.757,3.757,0,0,0,312.935,0" transform="translate(-309.1 0.001)" fill="#0d9bd5"/>
  </g>
  <g id="o-point" transform="translate(102.722 9.782)">
    <path id="Контур_3821" data-name="Контур 3821" d="M271.224,29.772a3.757,3.757,0,0,0-3.757,3.992,3.835,3.835,0,0,0,3.561,3.561,3.8,3.8,0,1,0,.2-7.553m8.727,3.8a8.727,8.727,0,0,1-9.04,8.727,8.844,8.844,0,0,1-8.414-8.414,8.728,8.728,0,0,1,17.453-.313" transform="translate(-262.496 -24.996)" fill="#0c3258"/>
  </g>
  <g id="p" transform="translate(84.214 9.619)">
    <path id="Контур_3822" data-name="Контур 3822" d="M223.261,37.306a8.022,8.022,0,0,1-2.935-.665V29.558a8.022,8.022,0,0,1,2.935-.665c1.252,0,3.718.235,3.718,4.226s-2.465,4.187-3.718,4.187M228.7,25.488a7.2,7.2,0,0,0-3.835-.9,9.157,9.157,0,0,0-4.892,1.644l-.391-1.135H215.2v22.7h5.126V40.2a9,9,0,0,0,4.539,1.448,7.357,7.357,0,0,0,3.835-.939c1.644-.978,3.287-3.365,3.287-7.592s-1.644-6.653-3.287-7.631" transform="translate(-215.2 -24.58)" fill="#0c3258"/>
  </g>
  <g id="e" transform="translate(66.016 9.627)">
    <path id="Контур_3823" data-name="Контур 3823" d="M173.707,31.8a3.819,3.819,0,0,1,3.678-3.092,3.028,3.028,0,0,1,3.091,3.092Zm3.561-7.2c-5.166,0-8.648,3.678-8.57,9a8.648,8.648,0,0,0,8.57,8.453,15.145,15.145,0,0,0,6.887-1.448l-.626-3.835a14.2,14.2,0,0,1-5.479.9c-2.27,0-3.718-1.252-4.031-2.661h10.527c1.487-6.144-2.465-10.409-7.279-10.409" transform="translate(-168.697 -24.6)" fill="#0c3258"/>
  </g>
  <g id="m" transform="translate(37.724 9.586)">
    <path id="Контур_3824" data-name="Контур 3824" d="M120.9,26.179a6.614,6.614,0,0,0-4.579-1.683,9.851,9.851,0,0,0-5.635,2.035l-.352-.352a6.613,6.613,0,0,0-4.579-1.683,8.962,8.962,0,0,0-4.657,1.409l-.313-.861H96.4V41.363h5.126V29.584c1.448-.626,3.561-1.174,4.813.078a3.131,3.131,0,0,1,.665,2.152v9.548h5.087V29.584c1.409-.626,3.522-1.174,4.774.078a2.962,2.962,0,0,1,.665,2.152v9.548h5.126V30.523a5.586,5.586,0,0,0-1.761-4.344" transform="translate(-96.4 -24.494)" fill="#0c3258"/>
  </g>
  <g id="o-home" transform="translate(18.236 9.627)">
    <path id="Контур_3825" data-name="Контур 3825" d="M55.327,29.531a3.8,3.8,0,1,0,3.757,3.8,3.757,3.757,0,0,0-3.757-3.8m8.727,3.8A8.727,8.727,0,1,1,55.327,24.6a8.727,8.727,0,0,1,8.727,8.727" transform="translate(-46.6 -24.6)" fill="#0c3258"/>
  </g>
  <g id="h" transform="translate(0 3.405)">
    <path id="Контур_3826" data-name="Контур 3826" d="M5.126,8.7v7.67a8.609,8.609,0,0,1,4.735-1.487,6.613,6.613,0,0,1,4.579,1.683A5.586,5.586,0,0,1,16.2,20.909v10.84H11.075V22.162a3.01,3.01,0,0,0-.7-2.191c-1.37-1.252-3.678-.7-5.244-.078V31.749H0V8.7Z" transform="translate(0 -8.7)" fill="#0c3258"/>
  </g>
</svg>
