<svg id="logo" xmlns="http://www.w3.org/2000/svg" width="191.737" height="35.847" viewBox="0 0 191.737 35.847">
  <g id="na_sirku" data-name="na sirku">
    <g id="Group_859" data-name="Group 859" transform="translate(42.711 10.826)">
      <g id="Group_858" data-name="Group 858">
        <g id="Group_855" data-name="Group 855" transform="translate(0 0.857)">
          <path id="Path_3768" data-name="Path 3768" d="M816.224,522.59a15.02,15.02,0,0,0-6.053,1.223l-.334.146.154.322c.018.048.1.286.456,1.271.294.828.45,1.266.462,1.3l.114.348.335-.13a13.12,13.12,0,0,1,4.54-1.056,2.36,2.36,0,0,1,1.73.553,2.575,2.575,0,0,1,.546,1.844v.518c-.2.021-.425.043-.686.066-.422.038-.808.077-1.149.116s-.657.077-.939.114a9.865,9.865,0,0,0-4.933,1.571,4.623,4.623,0,0,0-1.718,3.932A4.864,4.864,0,0,0,810.2,538.5a5.319,5.319,0,0,0,3.717,1.306,6.434,6.434,0,0,0,2.832-.574,8.432,8.432,0,0,0,1.942-1.364c.038.118.084.26.139.431.262.8.3.925.3.939l.066.266h3.347V528.829c0-2.163-.515-3.761-1.53-4.752A6.674,6.674,0,0,0,816.224,522.59Zm1.937,9.366v2.591a3.343,3.343,0,0,1-1.2,1.3,3.653,3.653,0,0,1-2.046.57,2.013,2.013,0,0,1-1.416-.447,1.664,1.664,0,0,1-.465-1.287,1.987,1.987,0,0,1,.88-1.831,7.32,7.32,0,0,1,3.119-.811c.043,0,.174-.01.763-.058Z" transform="translate(-808.75 -522.576)" fill="#231f20"/>
          <path id="Path_3769" data-name="Path 3769" d="M861.6,529.378c-.115-.049-.274-.111-.486-.19-.242-.09-.333-.12-.379-.134a12.723,12.723,0,0,1-2.282-1.03.951.951,0,0,1-.451-.85.914.914,0,0,1,.458-.856,3.044,3.044,0,0,1,1.563-.332A9.545,9.545,0,0,1,864.088,527l.342.163,1.147-3.263-.275-.14a11.727,11.727,0,0,0-5.352-1.174,7.308,7.308,0,0,0-4.466,1.22,4.249,4.249,0,0,0-1.669,3.594,4.418,4.418,0,0,0,1.035,3.067,8.6,8.6,0,0,0,3.214,1.982c.123.049.393.15.8.3a11.652,11.652,0,0,1,2.365,1.136,1.176,1.176,0,0,1,.5,1,1.245,1.245,0,0,1-.544,1.087,3.042,3.042,0,0,1-1.717.408,9.332,9.332,0,0,1-2.527-.4,10.981,10.981,0,0,1-2.294-.9l-.439-.245-.48,3.577.2.118a11.247,11.247,0,0,0,5.651,1.241,7.132,7.132,0,0,0,4.655-1.374,4.9,4.9,0,0,0,1.706-3.943,4.469,4.469,0,0,0-1.092-3.111A8.249,8.249,0,0,0,861.6,529.378Z" transform="translate(-838.051 -522.576)" fill="#231f20"/>
          <path id="Path_3770" data-name="Path 3770" d="M905.791,523.7h0a5.794,5.794,0,0,0-3.549-1.147,6.161,6.161,0,0,0-2.972.725,5.586,5.586,0,0,0-1.665,1.372l-.3-1.694h-3.8v23.116l4.381-.222v-6.308c0-.091-.007-.344-.062-1.391a6.278,6.278,0,0,0,1.446,1,6.2,6.2,0,0,0,2.808.633,5.94,5.94,0,0,0,4.986-2.447,10.064,10.064,0,0,0,1.811-6.195,11.645,11.645,0,0,0-.772-4.343A7.046,7.046,0,0,0,905.791,523.7Zm-1.3,7.408a6.879,6.879,0,0,1-.89,3.829h0a2.631,2.631,0,0,1-2.315,1.258,2.863,2.863,0,0,1-2.543-1.226,7.4,7.4,0,0,1-.888-4.1c.026-3.193,1.126-4.745,3.36-4.745a2.744,2.744,0,0,1,2.384,1.194A6.572,6.572,0,0,1,904.489,531.105Z" transform="translate(-863.956 -522.55)" fill="#231f20"/>
          <path id="Path_3771" data-name="Path 3771" d="M948.145,522.59h0a7.138,7.138,0,0,0-5.6,2.362,9.155,9.155,0,0,0-2.046,6.236,8.845,8.845,0,0,0,2.175,6.311,7.977,7.977,0,0,0,6.059,2.3,10.534,10.534,0,0,0,5.718-1.521l.2-.129L954,534.758l-.415.24a9.311,9.311,0,0,1-4.7,1.307,3.7,3.7,0,0,1-2.871-1.107,4.507,4.507,0,0,1-1.078-2.837h10.281v-.352q0-.258.007-.8t.007-.8a8.382,8.382,0,0,0-1.855-5.659A6.568,6.568,0,0,0,948.145,522.59Zm2.9,6.692h-6.029a4.038,4.038,0,0,1,.985-2.393,2.866,2.866,0,0,1,2.157-.9,2.579,2.579,0,0,1,2.118.912A3.951,3.951,0,0,1,951.046,529.282Z" transform="translate(-894.573 -522.576)" fill="#231f20"/>
          <path id="Path_3772" data-name="Path 3772" d="M1001,524.3h0a5.356,5.356,0,0,0-4.312-1.712,7.419,7.419,0,0,0-5.042,2.057l-.341-1.669h-3.6V539.5h4.381v-8.052a16.285,16.285,0,0,1,.249-3.334,3.448,3.448,0,0,1,1.3-1.4,3.71,3.71,0,0,1,2.01-.574,1.974,1.974,0,0,1,1.836.787,5.286,5.286,0,0,1,.552,2.675V539.5h4.4V529.145A7.334,7.334,0,0,0,1001,524.3Z" transform="translate(-925.323 -522.576)" fill="#231f20"/>
        </g>
        <g id="Group_856" data-name="Group 856" transform="translate(78.961 1.678)">
          <path id="Path_3773" data-name="Path 3773" d="M1038.668,548.2l-.211-2.173h2.874a11.045,11.045,0,0,0,2.085-.173,4.024,4.024,0,0,0,1.479-.569,3.941,3.941,0,0,0,.958-.878,3.4,3.4,0,0,0,.557-1.252,9.787,9.787,0,0,0,.254-1.526q.063-.755.063-1.849v-1.4a6.354,6.354,0,0,1-1.958,1.907,5.424,5.424,0,0,1-2.832.669,6.276,6.276,0,0,1-2.444-.468,5.7,5.7,0,0,1-1.888-1.245,7.614,7.614,0,0,1-1.311-1.8,8.461,8.461,0,0,1-.789-2.115,9.989,9.989,0,0,1-.247-2.2,11.689,11.689,0,0,1,.416-3.195,8.473,8.473,0,0,1,1.232-2.62,5.633,5.633,0,0,1,2.149-1.806,6.827,6.827,0,0,1,3.05-.655,5.622,5.622,0,0,1,2.656.6,6.024,6.024,0,0,1,2.036,1.835v-2.1h2.3v14.651q0,1.007-.049,1.763a12.376,12.376,0,0,1-.24,1.677,6.653,6.653,0,0,1-.514,1.583,6.157,6.157,0,0,1-.908,1.331,4.579,4.579,0,0,1-1.395,1.079,8.41,8.41,0,0,1-2.008.669,12.85,12.85,0,0,1-2.7.259Zm3.621-9.283a4.812,4.812,0,0,0,2.1-.432,3.421,3.421,0,0,0,1.409-1.194,5.633,5.633,0,0,0,.754-1.7,8.017,8.017,0,0,0,.247-2.044v-1.166a8.4,8.4,0,0,0-.254-2.123,5.5,5.5,0,0,0-.782-1.741,3.593,3.593,0,0,0-1.409-1.2,4.6,4.6,0,0,0-2.05-.432,4.1,4.1,0,0,0-1.768.374,3.79,3.79,0,0,0-1.311.986,5.913,5.913,0,0,0-.873,1.425,7.406,7.406,0,0,0-.514,1.648,9.189,9.189,0,0,0-.155,1.684,8.191,8.191,0,0,0,.169,1.655,7.091,7.091,0,0,0,.535,1.6,5.607,5.607,0,0,0,.887,1.36,3.912,3.912,0,0,0,1.3.943A4.042,4.042,0,0,0,1042.289,538.917Z" transform="translate(-1035.259 -524.857)" fill="#231f20"/>
          <path id="Path_3774" data-name="Path 3774" d="M1089.187,525.382a7.081,7.081,0,0,1,1.155.087l-.085,2.216a6.581,6.581,0,0,0-1.127-.115,4.066,4.066,0,0,0-3.205,1.4,5.076,5.076,0,0,0-1.233,3.476v8.865h-2.353q-.014-14.535-.014-15.787h1.958l.225,2.835a6.639,6.639,0,0,1,2.043-2.159A4.692,4.692,0,0,1,1089.187,525.382Z" transform="translate(-1065.919 -525.195)" fill="#231f20"/>
          <path id="Path_3775" data-name="Path 3775" d="M1120.47,533.074a8.942,8.942,0,0,1-1.916,5.951,6.546,6.546,0,0,1-5.3,2.281,6.4,6.4,0,0,1-5.177-2.3,10.109,10.109,0,0,1,.007-11.873,6.579,6.579,0,0,1,5.3-2.274,6.384,6.384,0,0,1,5.2,2.281A9.009,9.009,0,0,1,1120.47,533.074Zm-11.876.043a7.531,7.531,0,0,0,1.219,4.5,4.109,4.109,0,0,0,3.557,1.691,3.978,3.978,0,0,0,3.487-1.684,9.414,9.414,0,0,0,.014-9.088,4.554,4.554,0,0,0-7.065.036A7.68,7.68,0,0,0,1108.593,533.117Z" transform="translate(-1081.441 -524.857)" fill="#231f20"/>
          <path id="Path_3776" data-name="Path 3776" d="M1152.866,541.573l-5.988-15.787h2.522l3.409,9.383,1.409,4q.478-1.54,1.324-3.972,1.07-3.065,3.324-9.412h2.508l-5.945,15.787Z" transform="translate(-1107.968 -525.455)" fill="#231f20"/>
          <path id="Path_3777" data-name="Path 3777" d="M1195.529,541.306a6.72,6.72,0,0,1-5.3-2.187,8.71,8.71,0,0,1-1.937-5.987,9.073,9.073,0,0,1,1.874-5.951,6.192,6.192,0,0,1,4.931-2.324,5.638,5.638,0,0,1,4.558,2.007,8.074,8.074,0,0,1,1.683,5.361q0,.173-.007.633t-.007.662h-10.608a6.314,6.314,0,0,0,1.359,4.2,4.471,4.471,0,0,0,3.543,1.5,10.315,10.315,0,0,0,4.917-1.324l.366,1.943A9.931,9.931,0,0,1,1195.529,541.306Zm2.374-13.2a3.478,3.478,0,0,0-2.839-1.259,3.734,3.734,0,0,0-2.945,1.3,6.056,6.056,0,0,0-1.338,3.562h8.157A5.541,5.541,0,0,0,1197.9,528.1Z" transform="translate(-1134.943 -524.857)" fill="#231f20"/>
        </g>
        <g id="Group_857" data-name="Group 857" transform="translate(145.566)">
          <path id="Path_3778" data-name="Path 3778" d="M1229.784,521.864a1.73,1.73,0,1,1-1.725-1.72A1.711,1.711,0,0,1,1229.784,521.864Zm-3.029,0a1.32,1.32,0,0,0,1.314,1.375,1.3,1.3,0,0,0,1.284-1.364,1.3,1.3,0,1,0-2.6-.011Zm1.037.9h-.39v-1.72a3.32,3.32,0,0,1,.647-.053,1.032,1.032,0,0,1,.585.126.481.481,0,0,1,.164.377.438.438,0,0,1-.349.4v.021a.506.506,0,0,1,.308.419,1.34,1.34,0,0,0,.123.43h-.421a1.49,1.49,0,0,1-.133-.419c-.031-.189-.134-.273-.349-.273h-.185Zm.01-.976h.185c.215,0,.39-.073.39-.252,0-.157-.113-.262-.359-.262a.9.9,0,0,0-.216.021Z" transform="translate(-1226.323 -520.144)" fill="#231f20"/>
        </g>
      </g>
    </g>
    <g id="Group_862" data-name="Group 862">
      <g id="Group_860" data-name="Group 860" transform="translate(18.187)">
        <path id="Path_3779" data-name="Path 3779" d="M742.346,493.708a50.9,50.9,0,0,0-3.945-3.966l.52,25.18,11.4-5.739.4.8-11.766,6.463.141,6.819c.021,1.015.017,1.826.017,1.826h7a10.387,10.387,0,0,0,7.44-3.15C760.639,514.7,748.34,500.126,742.346,493.708Z" transform="translate(-738.401 -489.742)" fill="#ef662f"/>
      </g>
      <g id="Group_861" data-name="Group 861">
        <path id="Path_3780" data-name="Path 3780" d="M702.869,520.251l-11.687-6.42.4-.8,11.318,5.7.263-12.755-5.674-3.117.4-.8,5.3,2.668.31-14.991a50.9,50.9,0,0,0-3.945,3.966c-5.994,6.418-18.241,21.045-11.208,28.23a10.387,10.387,0,0,0,7.44,3.15h7s0-.812.017-1.826Z" transform="translate(-686.229 -489.742)" fill="#f79e31"/>
      </g>
    </g>
  </g>
</svg>
