<svg xmlns="http://www.w3.org/2000/svg" width="917.184" height="966.594" viewBox="0 0 917.184 966.594">
  <path id="Union_3" data-name="Union 3" d="M2355.705,18486.084c-268.937-47.416-218.983-562.291-183.119-797.959,7.451-49.049,21.036-131.721,26.384-146.986,0,0,.079-.236.2-.58l.125-.348c.924-2.461,3.89-9.582,8.626-12.9,5.761-4.039,15.325-3.371,15.325-3.371l.023.01c15.618.051,98.5,15.668,147.38,25.488,233.709,46.908,734.968,174.1,687.2,444.994a288.15,288.15,0,0,1-118.767,186.494l-157.468,110.262L2729.046,18328l-26.022,18.219-131.451,92.043a288.613,288.613,0,0,1-215.868,47.82Z" transform="translate(-2143.853 -17523.902)" fill="#f4f4f3"/>
</svg>
