<?xml version="1.0" encoding="utf-8"?>
<!-- Generator: Adobe Illustrator 25.2.0, SVG Export Plug-In . SVG Version: 6.00 Build 0)  -->
<svg version="1.1" id="Слой_1" xmlns="http://www.w3.org/2000/svg" xmlns:xlink="http://www.w3.org/1999/xlink" x="0px" y="0px"
	 viewBox="0 0 2200 965" style="enable-background:new 0 0 2200 965;" xml:space="preserve">
<style type="text/css">
	.st0{fill:none;stroke:#F4F4F3;stroke-width:3;}
</style>
<g transform="translate(139.243 -114.584)">
	<path class="st0" d="M60.9,228.1c0,0,144.4,27,218.5,99.5s148.9,26.7,155.7-21.4s-33.6-96.7-90.1-78.1s-67.2,81.9-18.3,120.1
		s207,79.3,294.5,27.3s239.9-84.5,306.4-52.4s48.1,132.8-18.3,135.9S804.6,397,839.7,349.7s142.4-104.3,227.7,25.7
		c85.3,130-349.5,433.9-475,418.4s-109.2-138.5-18.8-147.6s83.3,73.1,110.7,167.6c27.4,94.5,224.8,54.9,314.9-7.1
		s168-60.2,209.2-31.2c41.2,29,31.3,102.3-26.7,120.6c-58,18.3-109.9-49.6-87-102.3c22.9-52.7,115.9-99.4,266.7-63.7
		S1783,970.5,1783,970.5"/>
</g>
<path class="st0" d="M200.2,113.5c0,0-128.9-19.1-200.2-93.5"/>
<path class="st0" d="M2200,965c-148.4-39-236.7-82.9-278.9-110"/>
</svg>
