<svg xmlns="http://www.w3.org/2000/svg" width="143.346" height="35.918" viewBox="0 0 143.346 35.918"><path d="M8.576,75.019v27.864l23.56,8.054,23.615-8.054V75.019Z" transform="translate(-8.576 -75.019)" fill="#d62a43" fill-rule="evenodd"/><path d="M32.9,103.843H25.671V101.36a7.314,7.314,0,0,1-6.4,3.034c-3.476,0-6.787-2.151-6.787-6.675V84.255h7.5V94.627c0,2.208.276,3.807,2.484,3.807,1.214,0,2.924-.607,2.924-3.807V84.255h7.5ZM46.859,89.994a1.825,1.825,0,0,0-.883-1.435,2.374,2.374,0,0,0-1.711-.662c-.937,0-2.207.277-2.207,1.545a1.123,1.123,0,0,0,.883,1.049c1.269.551,4.083.662,6.621,1.545,2.372.773,4.579,2.207,4.579,5.408,0,5.462-5.132,6.952-9.932,6.952-4.634,0-9.655-1.876-9.821-6.952h7.119a2.633,2.633,0,0,0,.993,1.766,3.288,3.288,0,0,0,1.986.551c.938,0,2.538-.33,2.538-1.49s-.717-1.434-4.193-2.041c-5.683-.993-8-2.869-8-6.18,0-4.966,5.352-6.235,9.27-6.235,4.3,0,9.38,1.159,9.546,6.18H46.859Z" transform="translate(-9.395 -76.862)" fill="#fff" fill-rule="evenodd"/><path d="M71.537,75.158h7.448v9.435H79.1A6.566,6.566,0,0,1,84.448,82c6.566,0,8.387,5.517,8.387,10.153,0,4.91-2.7,10.427-8.222,10.427-3.641,0-4.8-1.434-5.793-2.648h-.055v2.1H71.536V75.158h0Zm10.483,12.3c-2.649,0-3.255,2.483-3.255,4.8s.607,4.911,3.255,4.911c2.7,0,3.31-2.593,3.31-4.911s-.606-4.8-3.31-4.8Zm31.617,10.207a8.174,8.174,0,0,0,.881,4.36H106.96a5.381,5.381,0,0,1-.277-1.876h-.054c-1.6,1.876-3.918,2.427-6.345,2.427-3.753,0-6.842-1.876-6.842-5.959,0-6.124,7.229-5.958,11.036-6.675.993-.165,2.041-.441,2.041-1.711,0-1.324-1.213-1.876-2.483-1.876-2.318,0-2.759,1.158-2.759,2.042H94.325c.165-5.518,5.407-6.4,10.043-6.4,9.379,0,9.27,3.862,9.27,7.669v8Zm-7.119-4.412a10.041,10.041,0,0,1-2.924.937c-1.711.386-2.593.828-2.593,2.152a2.138,2.138,0,0,0,2.318,1.764,2.988,2.988,0,0,0,3.2-3.034v-1.82h0Zm9.822-10.816h7.173v2.483h.11c1.434-1.931,3.366-2.924,6.4-2.924,3.476,0,6.675,2.152,6.675,6.621v13.408h-7.448V91.821c0-2.317-.277-3.862-2.428-3.862-1.325,0-3.034.662-3.034,3.752v10.318H116.34V82.441ZM139.4,75.158h7.447V88.18l4.746-5.739h8.442l-6.952,7.394,8,12.194h-8.995l-3.917-7.007-1.325,1.435v5.573H139.4Zm25.1,24.222a1.35,1.35,0,0,1,.33,1.05,1.291,1.291,0,0,1-.33.993,1.313,1.313,0,0,1-1.1.442.977.977,0,0,1-.939-.442,1.065,1.065,0,0,1-.442-.993,1.107,1.107,0,0,1,.442-1.05,1.364,1.364,0,0,1,.939-.44A1.758,1.758,0,0,1,164.508,99.38Zm.165-.165a2.09,2.09,0,0,0-1.269-.442,1.684,1.684,0,0,0-1.16.442,1.718,1.718,0,0,0-.5,1.215,1.505,1.505,0,0,0,.5,1.158,1.389,1.389,0,0,0,1.16.551,1.691,1.691,0,0,0,1.711-1.709A1.929,1.929,0,0,0,164.673,99.215Zm-.993,1.16h-.609v-.662h.277a.6.6,0,0,1,.442.11c.055,0,.055.111.055.277A.512.512,0,0,1,163.68,100.374Zm-.938.937h.33v-.662h.277c.165,0,.277,0,.332.055.11,0,.165.165.165.386v.221h.386c-.111,0-.111-.054-.111-.054v-.277a.511.511,0,0,0-.054-.277.3.3,0,0,0-.277-.165c.055-.11.165-.11.277-.165.054,0,.165-.221.165-.386s-.111-.332-.386-.442a2.963,2.963,0,0,0-.442-.055h-.662v1.821Z" transform="translate(-21.769 -75.048)" fill="#1b3281" fill-rule="evenodd"/></svg>