<svg xmlns="http://www.w3.org/2000/svg" width="92.739" height="92.739" viewBox="0 0 92.739 92.739"><path d="M0,92.739H92.739V0H0Z" fill="#d21c23"/><path d="M74.1,37.16c0-3.726-1.537-5.895-4.379-5.895s-4.38,2.168-4.38,5.895c0,3.749,1.516,5.9,4.38,5.9s4.379-2.148,4.379-5.9m3.453,0a7.832,7.832,0,0,1-15.665,0,7.832,7.832,0,0,1,15.665,0m-23.667.674a2.072,2.072,0,0,0,.232,1.032h2.505v3.726a6.438,6.438,0,0,1-2.484.484c-3.031,0-4.611-2.168-4.611-5.916s1.58-5.916,4.443-5.916a3.652,3.652,0,0,1,3.684,2.59l.232.589H59.4V30.655a12.334,12.334,0,0,0-5.58-1.305c-4.633,0-7.749,3.094-7.749,7.832,0,4.758,3.032,7.79,7.749,7.79a13.28,13.28,0,0,0,5.9-1.559V36.845h-5.6a1.965,1.965,0,0,0-.232.99M41.081,34c0-1.537-.948-2.358-2.844-2.358H35.754v4.737h2.484c1.874,0,2.844-.863,2.844-2.378M24.594,38.3l-2.063-5.578L20.467,38.3Zm20.57,4.59a2.047,2.047,0,0,1,0,1.727,12.605,12.605,0,0,1-1.641.105c-2.043,0-3.032-.843-3.263-2.8l-.085-.736c-.252-2.127-.946-2.948-3.263-2.948H35.754v4.483h2V44.55H24.509V42.718h1.727l-.968-2.631H19.794l-.968,2.631h1.768V44.55H15.014V42.718h1.474l5.159-12.906h2.8l5.264,12.906h2.905V31.644H30.827V29.812h8.465c3.009,0,4.967,1.5,4.967,3.9a3.782,3.782,0,0,1-3.853,3.726V37.5a2.848,2.848,0,0,1,2.884,2.884l.085.78c.125,1.221.379,1.769,1.347,1.769a2.541,2.541,0,0,0,.441-.043M13.077,31.644c1.41,0,1.894.611,2.358,2.38l.147.568H17.1v-4.78H4.4v1.832H6.193V42.718H4.4V44.55h7.032V42.718H9.328V38.424h4.338a2.194,2.194,0,0,0,.232-1.053,2.077,2.077,0,0,0-.232-1.01H9.329V31.644ZM77.043,18.1c0-2.315-1.41-3.915-4.064-4.526l-2.674-.611c-1.557-.357-2.21-.968-2.21-2,0-1.243.99-2.021,2.926-2.021s3.074.694,3.516,2.336l.189.716h1.517V8.356a11.8,11.8,0,0,0-5.349-1.3c-3.6,0-5.915,1.727-5.915,4.506,0,2.146,1.347,3.726,3.935,4.294l2.675.591c1.7.378,2.336,1.051,2.336,2.168,0,1.368-1.033,2.126-3.1,2.126-2.337,0-3.536-.926-4.063-2.7l-.273-.9H64.98v4.128a13.113,13.113,0,0,0,6.21,1.368c3.536,0,5.853-1.769,5.853-4.528m-13.476-.926H62.051l-.168.738c-.421,1.873-1.01,2.463-2.4,2.463H56.556V9.3h2V7.473H51.63V9.3h1.789V20.379H51.63V22.21H63.567Zm-13.265,0H48.787l-.169.738c-.42,1.873-1.01,2.463-2.4,2.463H43.291V9.3h2V7.473H38.364V9.3h1.791V20.379H38.364V22.21H50.3ZM7.456,22.21,3.751,9.3H2.065V7.473H8.929V9.3H6.95L9.414,18.19,12.361,7.473h3.031L18.4,18.21,20.824,9.3H18.76V7.473H36.617v4.778H35.1l-.148-.569C34.491,9.915,34.007,9.3,32.6,9.3H29.1v4.443h4.232a2.1,2.1,0,0,1,.23,1.01,2.21,2.21,0,0,1-.23,1.053H29.1v4.57h3.643c1.367,0,1.978-.591,2.4-2.464l.17-.738h1.516V22.21H24.173V20.379h1.791V9.3H23.055L19.372,22.21H16.445L13.456,11.515,10.382,22.21Z" transform="translate(5.828 19.899)" fill="#fff"/></svg>